<?xml version="1.0" encoding="UTF-8"?>
<svg width="1920px" height="1920px" viewBox="0 0 1920 1920" version="1.1" xmlns="http://www.w3.org/2000/svg" xmlns:xlink="http://www.w3.org/1999/xlink">
    <title>Guide - Complication Icon</title>
    <g id="Guide---Complication-Icon" stroke="none" stroke-width="1" fill="none" fill-rule="evenodd">
        <path d="M630.675516,1109 C811.737463,1109 961,1257.75984 961,1439 C961,1619.59055 809.79056,1769 630.675516,1769 C450.262537,1769 301,1620.88976 301,1439 C301,1258.40945 450.262537,1109 630.675516,1109 Z M1074.50659,257.800781 C1103.17622,257.800781 1130.44733,275.282263 1151.42511,306.748929 C1259.81029,474.571152 1388.474,659.874855 1463.29474,828.396337 C1504.55103,921.397818 1559.09326,1060.55041 1559.09326,1200.40226 C1559.09326,1484.30152 1365.39844,1673.80078 1074.50659,1673.80078 C1041.66778,1673.80078 1010.06766,1671.38577 979.84507,1666.69256 L979.860968,1666.68828 C1023.41136,1600.94416 1049,1522.61041 1049,1439 C1049,1209.42913 859.93412,1021 630.588987,1021 C625.615229,1021 620.660162,1021.08965 615.725329,1021.26741 C635.390475,947.759653 662.882242,880.762102 685.71844,828.396337 C760.539181,659.874855 889.202885,474.571152 997.58807,306.748929 C1018.56585,275.282263 1046.53622,257.800781 1074.50659,257.800781 Z M630.5,1233 C606.47327,1233 590.888365,1249.23428 590.888365,1272.61164 L590.888365,1399.88836 L464.261006,1399.88836 C440.234277,1399.88836 424,1415.47327 424,1439.5 C424,1463.52673 440.234277,1479.11164 464.261006,1479.11164 L590.888365,1479.11164 L590.888365,1606.38836 C590.888365,1630.41509 606.47327,1646 630.5,1646 C655.176101,1646 670.761006,1630.41509 670.761006,1606.38836 L670.761006,1479.11164 L797.388365,1479.11164 C821.415094,1479.11164 837,1463.52673 837,1439.5 C837,1415.47327 821.415094,1399.88836 797.388365,1399.88836 L670.761006,1399.88836 L670.761006,1272.61164 C670.761006,1249.23428 655.176101,1233 630.5,1233 Z" id="Combined-Shape" fill="#FFFFFF"></path>
    </g>
</svg>