<?xml version="1.0" encoding="UTF-8"?>
<svg width="24px" height="23px" viewBox="0 0 24 23" version="1.1" xmlns="http://www.w3.org/2000/svg" xmlns:xlink="http://www.w3.org/1999/xlink">
    <title>Add Entry Button</title>
    <g id="Add-Entry-Button" stroke="none" stroke-width="1" fill="none" fill-rule="evenodd">
        <g id="Group" transform="translate(2.4, 0.8)">
            <path d="M4.86720944,12.416 C7.54034218,12.416 9.744,14.5869921 9.744,17.232 C9.744,19.8675276 7.51159882,22.048 4.86720944,22.048 C2.20365782,22.048 0,19.8864882 0,17.232 C0,14.5964724 2.20365782,12.416 4.86720944,12.416 Z M4.856,14.224 C4.50135849,14.224 4.27132075,14.4611069 4.27132075,14.8025409 L4.27132075,16.6614591 L2.40226415,16.6614591 C2.04762264,16.6614591 1.808,16.8890818 1.808,17.24 C1.808,17.5909182 2.04762264,17.8185409 2.40226415,17.8185409 L4.27132075,17.8185409 L4.27132075,19.6774591 C4.27132075,20.0283774 4.50135849,20.256 4.856,20.256 C5.22022642,20.256 5.45026415,20.0283774 5.45026415,19.6774591 L5.45026415,17.8185409 L7.31932075,17.8185409 C7.67396226,17.8185409 7.904,17.5909182 7.904,17.24 C7.904,16.8890818 7.67396226,16.6614591 7.31932075,16.6614591 L5.45026415,16.6614591 L5.45026415,14.8025409 C5.45026415,14.4611069 5.22022642,14.224 4.856,14.224 Z" id="Combined-Shape" fill="#000000"></path>
            <path d="M11.424,0 C11.8471342,0 12.2496277,0.255012346 12.5592381,0.714034568 C14.1588918,3.16215309 16.0578355,5.86528395 17.1621126,8.32360296 C17.771013,9.68026864 18.576,11.7101669 18.576,13.7502657 C18.576,17.8916662 15.7172641,20.656 11.424,20.656 C10.9365497,20.656 10.4675918,20.6203651 10.0192109,20.5511256 L10.0194606,20.5510571 C10.6623157,19.5925686 11.04,18.4507213 11.04,17.232 C11.04,13.884 8.24652901,11.136 4.85792724,11.136 C4.78913322,11.136 4.72058121,11.1371457 4.65228992,11.1394188 C4.94254601,10.0661546 5.34861922,9.08801233 5.68588745,8.32360296 C6.7901645,5.86528395 8.68910823,3.16215309 10.2887619,0.714034568 C10.5983723,0.255012346 11.0111861,0 11.424,0 Z" id="Path" stroke="#000000" stroke-width="1.168" stroke-linejoin="round"></path>
        </g>
    </g>
</svg>