<?xml version="1.0" encoding="UTF-8"?>
<svg width="1920px" height="1920px" viewBox="0 0 1920 1920" version="1.1" xmlns="http://www.w3.org/2000/svg" xmlns:xlink="http://www.w3.org/1999/xlink">
    <title>Guide - Complication Icon</title>
    <g id="Guide---Complication-Icon" stroke="none" stroke-width="1" fill="none" fill-rule="evenodd">
        <path d="M644.20059,1047 C811.271386,1047 949,1182.68701 949,1348 C949,1512.72047 809.474926,1649 644.20059,1649 C477.728614,1649 340,1513.90551 340,1348 C340,1183.27953 477.728614,1047 644.20059,1047 Z M643.5,1160 C621.334906,1160 606.957547,1174.81918 606.957547,1196.15881 L606.957547,1312.34119 L490.141509,1312.34119 C467.976415,1312.34119 453,1326.56761 453,1348.5 C453,1370.43239 467.976415,1384.65881 490.141509,1384.65881 L606.957547,1384.65881 L606.957547,1500.84119 C606.957547,1522.77358 621.334906,1537 643.5,1537 C666.264151,1537 680.641509,1522.77358 680.641509,1500.84119 L680.641509,1384.65881 L797.457547,1384.65881 C819.622642,1384.65881 834,1370.43239 834,1348.5 C834,1326.56761 819.622642,1312.34119 797.457547,1312.34119 L680.641509,1312.34119 L680.641509,1196.15881 C680.641509,1174.81918 666.264151,1160 643.5,1160 Z" id="Combined-Shape" fill="#FFFFFF"></path>
        <path d="M1054,271 C1080.44589,271 1105.60173,286.938272 1124.95238,315.62716 C1224.93074,468.634568 1343.61472,637.580247 1412.63203,791.225185 C1450.68831,876.01679 1501,1002.88543 1501,1130.3916 C1501,1389.22914 1322.329,1562 1054,1562 C1023.53435,1562 994.224487,1559.77282 966.20068,1555.44535 L966.216291,1555.44107 C1006.39473,1495.53554 1030,1424.17008 1030,1348 C1030,1138.75 855.408063,967 643.620452,967 C639.320826,967 635.036326,967.071609 630.76812,967.213673 C648.909126,900.134665 674.288701,839.000771 695.367965,791.225185 C764.385281,637.580247 883.069264,468.634568 983.047619,315.62716 C1002.39827,286.938272 1028.19913,271 1054,271 Z" id="Path" stroke="#FA8231" stroke-width="73" stroke-linejoin="round"></path>
    </g>
</svg>